HIERARCHY
ROOT Hips
{
	OFFSET 0.000000 0.000000 0.000000
	CHANNELS 6 Xposition Yposition Zposition Xrotation Yrotation Zrotation
	JOINT LeftUpLeg_virtual
	{
		OFFSET 0.000000 0.000000 0.000000
		CHANNELS 3 Xrotation Yrotation Zrotation
		JOINT LeftUpLeg
		{
			OFFSET 13.026900 -6.336304 -1.092800
			CHANNELS 3 Xrotation Yrotation Zrotation
			JOINT LeftLeg
			{
				OFFSET 0.524474 -46.096886 9.782700
				CHANNELS 3 Xrotation Yrotation Zrotation
				JOINT LeftFoot
				{
					OFFSET -0.524474 -53.427422 -12.948200
					CHANNELS 3 Xrotation Yrotation Zrotation
					JOINT LeftToeBase
					{
						OFFSET 0.192200 -14.009700 16.364100
						CHANNELS 3 Xrotation Yrotation Zrotation
						JOINT LeftToe_End
						{
							OFFSET -1.784700 -0.561700 9.474800
							CHANNELS 3 Xrotation Yrotation Zrotation
							End Site
							{
								OFFSET 0 0 0
							}
						}
					}
				}
			}
		}
	}
	JOINT RightUpLeg_virtual
	{
		OFFSET 0.000000 0.000000 0.000000
		CHANNELS 3 Xrotation Yrotation Zrotation
		JOINT RightUpLeg
		{
			OFFSET -12.883000 -6.336304 -1.092800
			CHANNELS 3 Xrotation Yrotation Zrotation
			JOINT RightLeg
			{
				OFFSET -0.524587 -46.096825 9.782800
				CHANNELS 3 Xrotation Yrotation Zrotation
				JOINT RightFoot
				{
					OFFSET 0.524587 -53.427383 -12.948300
					CHANNELS 3 Xrotation Yrotation Zrotation
					JOINT RightToeBase
					{
						OFFSET -0.192200 -14.009700 16.364100
						CHANNELS 3 Xrotation Yrotation Zrotation
						JOINT RightToe_End
						{
							OFFSET 1.784700 -0.561700 9.474800
							CHANNELS 3 Xrotation Yrotation Zrotation
							End Site
							{
								OFFSET 0 0 0
							}
						}
					}
				}
			}
		}
	}
	JOINT Spine_virtual
	{
		OFFSET 0.000000 0.000000 0.000000
		CHANNELS 3 Xrotation Yrotation Zrotation
		JOINT Spine
		{
			OFFSET 0.072000 7.257294 -0.789700
			CHANNELS 3 Xrotation Yrotation Zrotation
			JOINT Spine1
			{
				OFFSET 0.000000 12.508769 -0.658067
				CHANNELS 3 Xrotation Yrotation Zrotation
				JOINT Spine1_split
				{
					OFFSET 0.000000 12.508769 -0.658067
					CHANNELS 3 Xrotation Yrotation Zrotation
					JOINT Spine2
					{
						OFFSET 0.000000 12.508769 -0.658067
						CHANNELS 3 Xrotation Yrotation Zrotation
						JOINT Neck_virtual
						{
							OFFSET 0.000000 0.000000 0.000000
							CHANNELS 3 Xrotation Yrotation Zrotation
							JOINT Neck
							{
								OFFSET 0.000000 14.033295 7.520400
								CHANNELS 3 Xrotation Yrotation Zrotation
								JOINT Head
								{
									OFFSET 0.000000 8.198502 5.703100
									CHANNELS 3 Xrotation Yrotation Zrotation
									JOINT HeadTop_End
									{
										OFFSET 0.000000 17.760803 13.332701
										CHANNELS 3 Xrotation Yrotation Zrotation
										End Site
										{
											OFFSET 0 0 0
										}
									}
								}
							}
						}
						JOINT LeftShoulder_virtual
						{
							OFFSET 0.000000 0.000000 0.000000
							CHANNELS 3 Xrotation Yrotation Zrotation
							JOINT LeftShoulder
							{
								OFFSET 6.292450 5.785301 -0.669000
								CHANNELS 3 Xrotation Yrotation Zrotation
								JOINT LeftShoulder_split
								{
									OFFSET 6.292450 5.785301 -0.669000
									CHANNELS 3 Xrotation Yrotation Zrotation
									JOINT LeftArm
									{
										OFFSET 13.907140 -6.093903 1.965100
										CHANNELS 3 Xrotation Yrotation Zrotation
										JOINT LeftForeArm
										{
											OFFSET 34.140198 0.000000 0.000000
											CHANNELS 3 Xrotation Yrotation Zrotation
											JOINT LeftHand
											{
												OFFSET 40.960209 0.000000 0.000000
												CHANNELS 3 Xrotation Yrotation Zrotation
												End Site
												{
													OFFSET 0 0 0
												}
											}
										}
									}
								}
							}
						}
						JOINT RightShoulder_virtual
						{
							OFFSET 0.000000 0.000000 0.000000
							CHANNELS 3 Xrotation Yrotation Zrotation
							JOINT RightShoulder
							{
								OFFSET -6.292450 5.785301 -0.669000
								CHANNELS 3 Xrotation Yrotation Zrotation
								JOINT RightShoulder_split
								{
									OFFSET -6.292450 5.785301 -0.669000
									CHANNELS 3 Xrotation Yrotation Zrotation
									JOINT RightArm
									{
										OFFSET -13.907140 -6.093903 1.965100
										CHANNELS 3 Xrotation Yrotation Zrotation
										JOINT RightForeArm
										{
											OFFSET -34.140198 0.000000 0.000000
											CHANNELS 3 Xrotation Yrotation Zrotation
											JOINT RightHand
											{
												OFFSET -40.960209 0.000000 0.000000
												CHANNELS 3 Xrotation Yrotation Zrotation
												End Site
												{
													OFFSET 0 0 0
												}
											}
										}
									}
								}
							}
						}
					}
				}
			}
		}
	}
}
MOTION
Frames: 4
Frame Time: 0.03333333
4.636368 89.808105 17.705814 0.000000 0.000000 0.000000 -0.620152 -36.166186 -3.465222 -46.878597 -0.831130 22.669249 61.794415 2.106065 -0.710771 -11.223082 -9.569493 -10.552190 -3.216015 -0.295201 0.802808 0.000000 0.000000 0.000000 -1.274678 -32.344374 -3.451874 -7.741571 -15.955337 -25.527151 49.366828 0.735640 -6.055935 -18.231385 -15.263028 27.184109 -9.736839 0.116114 0.818031 0.000000 0.000000 0.000000 -0.554613 -29.898754 -3.328342 12.120845 9.061939 -4.324543 2.082680 2.107883 -2.014819 1.031730 -0.278314 0.859285 0.000000 0.000000 0.000000 3.854413 1.388218 -1.433392 -11.270026 10.239891 6.282148 0.811742 8.764056 -0.787348 0.000000 0.000000 0.000000 2.788467 1.854499 -1.558759 0.744689 0.012580 -5.309484 -1.722429 -3.082532 -0.012807 -59.307837 2.582551 -46.133215 -179.545852 -73.144885 -178.883788 0.000000 0.000000 0.000000 2.817800 1.313502 -1.817744 3.468077 22.699241 -4.586291 -7.976040 -4.011338 2.260622 -42.638484 18.071233 48.678775 -178.594448 62.392535 177.605559 0.000000 0.000000 0.000000 
4.923821 89.019356 15.311844 0.000000 0.000000 0.000000 -1.905534 -39.370699 -3.596460 -46.235470 -0.353543 24.192472 62.456971 2.295629 -1.132463 -10.207961 -8.364381 -11.259931 -3.548135 -0.355428 0.960435 0.000000 0.000000 0.000000 -2.630285 -35.459262 -3.539886 -9.213609 -15.498978 -26.691807 51.438141 -0.631872 -5.262841 -20.471580 -16.784896 27.295796 -6.807310 0.042136 0.338542 0.000000 0.000000 0.000000 -2.057196 -33.192247 -3.367943 12.361465 8.683956 -3.551998 2.228258 1.985848 -1.851813 0.955154 -0.141383 0.968685 0.000000 0.000000 0.000000 3.866275 1.326610 -1.295754 -10.724809 10.949286 5.834207 1.798016 11.262704 -1.767430 0.000000 0.000000 0.000000 2.975169 1.750917 -1.382367 0.850910 0.101783 -5.095617 -1.375582 -3.139355 -0.099327 -60.263169 3.463764 -46.269925 -179.800167 -73.178189 -179.357803 0.000000 0.000000 0.000000 2.891338 1.184477 -1.674409 3.606081 22.391981 -5.037003 -7.370700 -3.404320 2.411816 -45.094053 18.348577 52.473516 -177.734937 62.976742 176.755529 0.000000 0.000000 0.000000 
4.990296 88.372513 12.848347 0.000000 0.000000 0.000000 -2.973884 -41.719540 -3.624880 -45.882318 -0.237581 25.445446 62.496600 2.252633 -1.409712 -8.615948 -7.483804 -12.071195 -3.742115 -0.355515 1.018998 0.000000 0.000000 0.000000 -3.866888 -37.963424 -3.500712 -10.731533 -14.704979 -27.885596 53.093844 -1.322287 -4.548566 -21.710716 -17.336091 28.266511 -5.200850 -0.006046 0.050648 0.000000 0.000000 0.000000 -3.221512 -35.843706 -3.256051 12.460209 8.346144 -2.759931 2.348494 1.846542 -1.661384 0.956438 -0.066851 1.018343 0.000000 0.000000 0.000000 3.831880 1.259388 -1.133572 -10.063807 11.483898 5.201932 2.744012 13.132929 -2.648338 0.000000 0.000000 0.000000 3.181428 1.627276 -1.196022 0.970461 0.255479 -5.224956 -1.152566 -3.067990 -0.257140 -60.650816 4.114024 -46.461402 179.889684 -73.781493 -179.820781 0.000000 0.000000 0.000000 3.040569 1.063150 -1.498448 3.682597 21.740928 -5.414621 -6.704538 -2.850845 2.502798 -47.557337 18.365581 56.363592 -177.375068 63.018276 176.352602 0.000000 0.000000 0.000000 
4.830042 87.965607 10.363171 0.000000 0.000000 0.000000 -3.749367 -43.289247 -3.508079 -45.772076 -0.481739 26.379157 61.791950 2.136654 -1.524056 -6.521359 -6.896601 -12.710389 -3.670606 -0.286359 0.875739 0.000000 0.000000 0.000000 -4.927693 -39.789469 -3.358089 -12.091592 -13.806573 -28.905214 53.943024 -1.358849 -4.009985 -22.089732 -17.001767 29.936664 -4.611492 -0.015247 -0.093132 0.000000 0.000000 0.000000 -4.018287 -37.805278 -2.992921 12.408914 8.019206 -1.987222 2.435768 1.684434 -1.450137 0.973026 -0.024766 1.016700 0.000000 0.000000 0.000000 3.767161 1.180835 -0.945358 -9.218183 11.878718 4.424792 3.612563 14.519939 -3.494565 0.000000 0.000000 0.000000 3.382009 1.484399 -1.004751 1.104499 0.435176 -5.668563 -1.083380 -2.898606 -0.425549 -60.461675 4.541208 -46.699622 179.568118 -74.679875 179.799143 0.000000 0.000000 0.000000 3.249227 0.958136 -1.288232 3.719010 20.866733 -5.686125 -6.112330 -2.520540 2.440084 -49.872518 18.304371 60.028736 -177.481591 63.199378 176.372765 0.000000 0.000000 0.000000 
